<?xml version="1.0" encoding="UTF-8"?>
<svg width="120px" height="28px" viewBox="0 0 120 28" version="1.1" xmlns="http://www.w3.org/2000/svg" xmlns:xlink="http://www.w3.org/1999/xlink">
    <!-- Generator: Sketch 52.3 (67297) - http://www.bohemiancoding.com/sketch -->
    <title>Group 23</title>
    <desc>Created with Sketch.</desc>
    <defs>
        <polygon id="path-1" points="0.0099 0.4274 19.5379 0.4274 19.5379 20 0.0099 20"></polygon>
        <polygon id="path-3" points="0 27.5488 119.2 27.5488 119.2 -0.0002 0 -0.0002"></polygon>
        <radialGradient cx="50%" cy="148.91868%" fx="50%" fy="148.91868%" r="1507.67908%" gradientTransform="translate(0.500000,1.489187),scale(0.033164,1.000000),rotate(180.000000),translate(-0.500000,-1.489187)" id="radialGradient-5">
            <stop stop-color="#7AF63A" offset="0%"></stop>
            <stop stop-color="#DBFF00" offset="100%"></stop>
        </radialGradient>
        <radialGradient cx="50%" cy="148.91868%" fx="50%" fy="148.91868%" r="1508.54358%" gradientTransform="translate(0.500000,1.489187),scale(0.033145,1.000000),rotate(180.000000),translate(-0.500000,-1.489187)" id="radialGradient-6">
            <stop stop-color="#7AF63A" offset="0%"></stop>
            <stop stop-color="#DBFF00" offset="100%"></stop>
        </radialGradient>
    </defs>
    <g id="Page-1" stroke="none" stroke-width="1" fill="none" fill-rule="evenodd">
        <g id="Group-23">
            <path d="M0,27.1914 L0,8.2894 L1.877,8.2894 L1.877,10.8584 C2.279,10.1594 2.8,9.5184 3.441,8.9364 C4.082,8.3554 4.782,8.0654 5.542,8.0654 C6.479,8.0654 7.254,8.1734 7.865,8.3894 C8.476,8.6054 9.168,8.9814 9.943,9.5184 L8.938,11.0824 C8.446,10.7104 7.924,10.4194 7.374,10.2114 C6.822,10.0024 6.241,9.8974 5.631,9.8974 C5.109,9.8974 4.622,10.0574 4.167,10.3784 C3.713,10.6984 3.318,11.0924 2.983,11.5624 C2.648,12.0314 2.38,12.5564 2.179,13.1374 C1.978,13.7184 1.877,14.2544 1.877,14.7464 L1.877,27.1914 L0,27.1914 Z" id="Fill-1" fill="#1D1D1B"></path>
            <g id="Group-5" transform="translate(10.000000, 7.548800)">
                <mask id="mask-2" fill="white">
                    <use xlink:href="#path-1"></use>
                </mask>
                <g id="Clip-4"></g>
                <path d="M2.1099,8.0244 L17.4379,8.0244 C17.1389,6.2814 16.2379,4.8744 14.7339,3.8014 C13.3189,2.7734 11.7029,2.2594 9.8859,2.2594 L9.7959,2.2594 C5.8939,2.2594 3.3309,4.1804 2.1099,8.0244 M0.0099,10.2134 C0.0099,7.3834 0.9259,5.0524 2.7579,3.2204 C4.6199,1.3584 6.9659,0.4274 9.7959,0.4274 C12.5959,0.4274 14.9129,1.2984 16.7449,3.0424 C18.6069,4.7844 19.5379,7.0414 19.5379,9.8114 L1.8419,9.8114 C1.8419,12.3744 2.5269,14.3994 3.8979,15.8884 C5.3279,17.4084 7.2939,18.1684 9.7959,18.1684 C11.0769,18.1684 12.2389,17.9604 13.2819,17.5424 C14.5919,16.9914 15.7619,15.8744 16.7899,14.1904 L18.4879,14.9724 C17.2959,17.2374 15.4639,18.7634 12.9909,19.5524 C12.0529,19.8504 10.9879,20.0004 9.7959,20.0004 C6.9659,20.0004 4.6349,19.0694 2.8029,17.2074 C0.9409,15.3454 0.0099,13.0144 0.0099,10.2134" id="Fill-3" fill="#1D1D1B" mask="url(#mask-2)"></path>
            </g>
            <path d="M34.2969,17.7627 C34.2969,19.9227 35.0709,21.7817 36.6209,23.3367 C38.1699,24.8937 40.0309,25.6717 42.2059,25.6717 C44.3959,25.6717 46.2579,24.9117 47.7919,23.3937 C49.3409,21.8287 50.1159,19.9517 50.1159,17.7627 C50.1159,15.6027 49.3379,13.7447 47.7809,12.1877 C46.2239,10.6317 44.3659,9.8527 42.2059,9.8527 C40.0169,9.8527 38.1539,10.6127 36.6209,12.1317 C35.0709,13.6817 34.2969,15.5587 34.2969,17.7627 M32.4649,17.7627 C32.4649,15.0227 33.3959,12.7207 35.2569,10.8587 C37.1489,8.9667 39.4649,8.0207 42.2059,8.0207 C45.2299,8.0207 47.7479,9.2127 49.7579,11.5957 L49.7579,8.2887 L51.6349,8.2887 L51.6349,27.1917 L49.7579,27.1917 L49.7579,23.9507 C47.7919,26.3207 45.2969,27.5037 42.2739,27.5037 L42.2059,27.5037 C39.4649,27.5037 37.1639,26.5737 35.3019,24.7107 C33.4109,22.8207 32.4649,20.5037 32.4649,17.7627" id="Fill-6" fill="#1D1D1B"></path>
            <path d="M56.3267,17.7627 C56.3267,14.9617 57.2577,12.6307 59.1197,10.7697 C60.9817,8.9077 63.3207,7.9757 66.1347,7.9757 C68.5477,7.9757 70.4697,8.5277 71.8997,9.6297 L71.8997,11.8647 L70.6937,11.0817 L69.4197,10.3897 C68.3027,10.0017 67.2447,9.8087 66.2467,9.8087 L66.1347,9.8087 C63.7817,9.8087 61.8747,10.5377 60.4147,11.9977 C58.9267,13.4877 58.1747,15.4087 58.1597,17.7627 C58.1597,20.0857 58.9077,21.9927 60.4047,23.4827 C61.9017,24.9717 63.8117,25.7167 66.1347,25.7167 C68.3257,25.7167 70.2457,24.9877 71.8997,23.5277 L71.8997,25.8727 C70.2017,26.9907 68.3097,27.5487 66.2247,27.5487 L66.1347,27.5487 C63.3347,27.5487 60.9997,26.6217 59.1317,24.7677 C57.2617,22.9127 56.3267,20.5777 56.3267,17.7627" id="Fill-8" fill="#1D1D1B"></path>
            <polygon id="Fill-10" fill="#1D1D1B" points="75.6309 10.166 75.6309 8.289 78.2009 8.289 78.2009 0 80.0769 0 80.0769 8.289 84.4799 8.289 84.4799 10.166 80.0769 10.166 80.0769 27.191 78.2009 27.191 78.2009 10.166"></polygon>
            <path d="M86.9141,17.7627 C86.9141,19.9227 87.6881,21.7817 89.2381,23.3367 C90.7871,24.8937 92.6491,25.6717 94.8241,25.6717 C97.0141,25.6717 98.8751,24.9117 100.4101,23.3937 C101.9591,21.8287 102.7331,19.9517 102.7331,17.7627 C102.7331,15.5287 101.9741,13.6517 100.4541,12.1317 C98.9351,10.5827 97.0591,9.8087 94.8241,9.8087 C92.6931,9.8087 90.8471,10.5977 89.2831,12.1767 C87.7041,13.7557 86.9141,15.6167 86.9141,17.7627 M85.0821,17.7627 C85.0821,15.0517 86.0281,12.7497 87.9201,10.8587 C89.7811,8.9367 92.0831,7.9757 94.8241,7.9757 C97.5351,7.9757 99.8361,8.9217 101.7271,10.8137 C103.6191,12.7057 104.5651,15.0227 104.5651,17.7627 C104.5651,20.5037 103.6351,22.8047 101.7721,24.6667 C99.8811,26.5587 97.5641,27.5037 94.8241,27.5037 C92.0831,27.5037 89.7811,26.5737 87.9201,24.7107 C86.0281,22.8207 85.0821,20.5037 85.0821,17.7627" id="Fill-12" fill="#1D1D1B"></path>
            <path d="M109.2578,27.1914 L109.2578,8.2894 L111.1348,8.2894 L111.1348,10.8584 C111.5358,10.1594 112.0578,9.5184 112.6978,8.9364 C113.3388,8.3554 114.0388,8.0654 114.7988,8.0654 C115.7368,8.0654 116.5118,8.1734 117.1218,8.3894 C117.7338,8.6054 118.4258,8.9814 119.1998,9.5184 L118.1948,11.0824 C117.7028,10.7104 117.1818,10.4194 116.6308,10.2114 C116.0788,10.0024 115.4988,9.8974 114.8878,9.8974 C114.3658,9.8974 113.8788,10.0574 113.4248,10.3784 C112.9698,10.6984 112.5748,11.0924 112.2398,11.5624 C111.9048,12.0314 111.6368,12.5564 111.4358,13.1374 C111.2358,13.7184 111.1348,14.2544 111.1348,14.7464 L111.1348,27.1914 L109.2578,27.1914 Z" id="Fill-14" fill="#1D1D1B"></path>
            <path d="M46.687,18.0761 C46.687,20.5511 44.681,22.5571 42.206,22.5571 C39.731,22.5571 37.726,20.5511 37.726,18.0761 C37.726,15.6011 39.731,13.5961 42.206,13.5961 C44.681,13.5961 46.687,15.6011 46.687,18.0761" id="Fill-16" fill="#DBFF00"></path>
            <path d="M99.3047,18.0761 C99.3047,20.5511 97.2987,22.5571 94.8247,22.5571 C92.3487,22.5571 90.3427,20.5511 90.3427,18.0761 C90.3427,15.6011 92.3487,13.5961 94.8247,13.5961 C97.2987,13.5961 99.3047,15.6011 99.3047,18.0761" id="Fill-18" fill="#DBFF00"></path>
            <mask id="mask-4" fill="white">
                <use xlink:href="#path-3"></use>
            </mask>
            <g id="Clip-21"></g>
            <polygon id="Fill-20" fill="url(#radialGradient-5)" mask="url(#mask-4)" points="42.206 17.2038 94.824 17.2038 94.824 15.4588 42.206 15.4588"></polygon>
            <polygon id="Fill-22" fill="url(#radialGradient-6)" mask="url(#mask-4)" points="42.206 20.6938 94.824 20.6938 94.824 18.9498 42.206 18.9498"></polygon>
        </g>
    </g>
</svg>